<svg width="78" height="14" viewBox="0 0 78 14" fill="none" xmlns="http://www.w3.org/2000/svg">
<path d="M13.9635 5.06988C13.9187 4.93114 13.8341 4.80865 13.7202 4.71768C13.6063 4.6267 13.4681 4.57126 13.3229 4.55826L9.28215 4.19133L7.68433 0.451429C7.56647 0.177356 7.29817 0 7.00006 0C6.70195 0 6.43362 0.177383 6.31582 0.452113L4.71798 4.19136L0.67655 4.55826C0.531519 4.57155 0.393577 4.62711 0.279825 4.71805C0.166074 4.809 0.0815158 4.93133 0.0366352 5.06988C-0.0555429 5.35339 0.0295804 5.66432 0.254215 5.86032L3.30859 8.53899L2.40792 12.5064C2.34202 12.7981 2.45522 13.0997 2.69728 13.2746C2.82735 13.3686 2.97958 13.4165 3.13307 13.4165C3.26541 13.4165 3.39667 13.3808 3.51452 13.3103L7.00006 11.2271L10.4843 13.3103C10.7393 13.4637 11.0607 13.4497 11.3022 13.2746C11.4204 13.189 11.5109 13.0706 11.5624 12.934C11.6138 12.7974 11.624 12.6487 11.5916 12.5064L10.6909 8.53899L13.7453 5.86087C13.8552 5.76491 13.9344 5.63878 13.9732 5.49815C14.012 5.35753 14.0086 5.2086 13.9635 5.06988Z" fill="#FFC107"/>
<path d="M29.9635 5.06988C29.9187 4.93114 29.8341 4.80865 29.7202 4.71768C29.6063 4.6267 29.4681 4.57126 29.3229 4.55826L25.2821 4.19133L23.6843 0.451429C23.5665 0.177356 23.2982 0 23.0001 0C22.702 0 22.4336 0.177383 22.3158 0.452113L20.718 4.19136L16.6765 4.55826C16.5315 4.57155 16.3936 4.62711 16.2798 4.71805C16.1661 4.809 16.0815 4.93133 16.0366 5.06988C15.9445 5.35339 16.0296 5.66432 16.2542 5.86032L19.3086 8.53899L18.4079 12.5064C18.342 12.7981 18.4552 13.0997 18.6973 13.2746C18.8274 13.3686 18.9796 13.4165 19.1331 13.4165C19.2654 13.4165 19.3967 13.3808 19.5145 13.3103L23.0001 11.2271L26.4843 13.3103C26.7393 13.4637 27.0607 13.4497 27.3022 13.2746C27.4204 13.189 27.5109 13.0706 27.5624 12.934C27.6138 12.7974 27.624 12.6487 27.5916 12.5064L26.6909 8.53899L29.7453 5.86087C29.8552 5.76491 29.9344 5.63878 29.9732 5.49815C30.012 5.35753 30.0086 5.2086 29.9635 5.06988Z" fill="#FFC107"/>
<path d="M45.9635 5.06988C45.9187 4.93114 45.8341 4.80865 45.7202 4.71768C45.6063 4.6267 45.4681 4.57126 45.3229 4.55826L41.2821 4.19133L39.6843 0.451429C39.5665 0.177356 39.2982 0 39.0001 0C38.702 0 38.4336 0.177383 38.3158 0.452113L36.718 4.19136L32.6765 4.55826C32.5315 4.57155 32.3936 4.62711 32.2798 4.71805C32.1661 4.809 32.0815 4.93133 32.0366 5.06988C31.9445 5.35339 32.0296 5.66432 32.2542 5.86032L35.3086 8.53899L34.4079 12.5064C34.342 12.7981 34.4552 13.0997 34.6973 13.2746C34.8274 13.3686 34.9796 13.4165 35.1331 13.4165C35.2654 13.4165 35.3967 13.3808 35.5145 13.3103L39.0001 11.2271L42.4843 13.3103C42.7393 13.4637 43.0607 13.4497 43.3022 13.2746C43.4204 13.189 43.5109 13.0706 43.5624 12.934C43.6138 12.7974 43.624 12.6487 43.5916 12.5064L42.6909 8.53899L45.7453 5.86087C45.8552 5.76491 45.9344 5.63878 45.9732 5.49815C46.012 5.35753 46.0086 5.2086 45.9635 5.06988Z" fill="#FFC107"/>
<path d="M61.9635 5.06988C61.9187 4.93114 61.8341 4.80865 61.7202 4.71768C61.6063 4.6267 61.4681 4.57126 61.3229 4.55826L57.2821 4.19133L55.6843 0.451429C55.5665 0.177356 55.2982 0 55.0001 0C54.702 0 54.4336 0.177383 54.3158 0.452113L52.718 4.19136L48.6765 4.55826C48.5315 4.57155 48.3936 4.62711 48.2798 4.71805C48.1661 4.809 48.0815 4.93133 48.0366 5.06988C47.9445 5.35339 48.0296 5.66432 48.2542 5.86032L51.3086 8.53899L50.4079 12.5064C50.342 12.7981 50.4552 13.0997 50.6973 13.2746C50.8274 13.3686 50.9796 13.4165 51.1331 13.4165C51.2654 13.4165 51.3967 13.3808 51.5145 13.3103L55.0001 11.2271L58.4843 13.3103C58.7393 13.4637 59.0607 13.4497 59.3022 13.2746C59.4204 13.189 59.5109 13.0706 59.5624 12.934C59.6138 12.7974 59.624 12.6487 59.5916 12.5064L58.6909 8.53899L61.7453 5.86087C61.8552 5.76491 61.9344 5.63878 61.9732 5.49815C62.012 5.35753 62.0086 5.2086 61.9635 5.06988Z" fill="#FFC107"/>
<path d="M77.9635 5.06988C77.9187 4.93114 77.8341 4.80865 77.7202 4.71768C77.6063 4.6267 77.4681 4.57126 77.3229 4.55826L73.2821 4.19133L71.6843 0.451429C71.5665 0.177356 71.2982 0 71.0001 0C70.702 0 70.4336 0.177383 70.3158 0.452113L68.718 4.19136L64.6765 4.55826C64.5315 4.57155 64.3936 4.62711 64.2798 4.71805C64.1661 4.809 64.0815 4.93133 64.0366 5.06988C63.9445 5.35339 64.0296 5.66432 64.2542 5.86032L67.3086 8.53899L66.4079 12.5064C66.342 12.7981 66.4552 13.0997 66.6973 13.2746C66.8274 13.3686 66.9796 13.4165 67.1331 13.4165C67.2654 13.4165 67.3967 13.3808 67.5145 13.3103L71.0001 11.2271L74.4843 13.3103C74.7393 13.4637 75.0607 13.4497 75.3022 13.2746C75.4204 13.189 75.5109 13.0706 75.5624 12.934C75.6138 12.7974 75.624 12.6487 75.5916 12.5064L74.6909 8.53899L77.7453 5.86087C77.8552 5.76491 77.9344 5.63878 77.9732 5.49815C78.012 5.35753 78.0086 5.2086 77.9635 5.06988Z" fill="#FFC107"/>
</svg>
